<?xml version="1.0" standalone="no"?>
<!DOCTYPE svg PUBLIC "-//W3C//DTD SVG 20010904//EN"
 "http://www.w3.org/TR/2001/REC-SVG-20010904/DTD/svg10.dtd">
<svg version="1.0" xmlns="http://www.w3.org/2000/svg"
 width="1024.000000pt" height="1024.000000pt" viewBox="0 0 1024.000000 1024.000000"
 preserveAspectRatio="xMidYMid meet">
<metadata>
Created by potrace 1.14, written by Peter Selinger 2001-2017
</metadata>
<g transform="translate(0.000000,1024.000000) scale(0.100000,-0.100000)"
fill="#000000" stroke="none">
<path d="M624 7853 c4 -10 573 -1336 1266 -2948 l1259 -2930 833 0 833 0 352
105 352 104 107 236 c58 129 111 240 116 247 5 6 28 15 51 18 56 10 104 35
151 81 85 82 114 208 97 412 l-11 127 598 1308 598 1309 190 97 c104 54 282
148 396 209 315 169 507 262 544 262 3 0 -9 -26 -26 -57 -51 -90 -168 -246
-480 -643 -316 -402 -390 -507 -517 -737 -108 -197 -208 -404 -357 -741 -143
-324 -172 -381 -229 -457 -165 -219 -157 -528 16 -693 65 -61 147 -90 279 -99
307 -21 725 117 1548 512 391 187 470 220 592 244 236 47 398 143 467 278 68
134 32 359 -71 448 -67 57 -136 79 -253 79 -115 1 -203 -23 -301 -80 -33 -19
-113 -61 -179 -93 -66 -32 -248 -125 -405 -207 -579 -303 -854 -421 -837 -356
3 9 8 35 12 57 12 71 76 256 133 385 121 276 211 424 626 1035 502 740 771
1122 845 1201 128 137 191 264 199 402 7 128 -28 227 -110 313 -169 175 -378
198 -608 67 -41 -24 -122 -65 -180 -92 -136 -63 -377 -191 -665 -354 -126 -71
-232 -128 -234 -126 -2 1 83 191 188 420 105 230 190 418 188 419 -1 1 -126
59 -277 129 l-276 126 -1201 0 -1200 0 -45 -127 c-25 -71 -193 -559 -374
-1085 -181 -527 -331 -958 -334 -958 -3 0 -153 431 -334 958 -181 526 -334
962 -340 968 -6 7 -165 64 -354 128 l-344 116 -1149 0 c-1091 0 -1150 -1
-1145 -17z m2800 -1645 c301 -876 551 -1596 555 -1600 3 -3 254 713 556 1593
l550 1599 1127 0 1128 0 -16 -32 c-8 -18 -151 -338 -317 -712 l-302 -678 -110
-28 c-179 -45 -259 -83 -329 -157 -57 -60 -79 -130 -73 -233 3 -47 10 -102 16
-122 18 -57 71 -128 122 -163 l46 -32 -201 -451 c-128 -286 -203 -445 -207
-434 -3 9 -9 134 -12 277 -10 401 -42 795 -83 1000 -32 161 -102 308 -176 370
-70 59 -105 70 -223 70 -99 0 -116 -3 -170 -28 -110 -51 -163 -124 -185 -256
-22 -134 0 -309 96 -771 86 -412 95 -483 101 -806 6 -313 -2 -437 -47 -754
-37 -259 -47 -458 -31 -622 l12 -123 -239 -535 -239 -535 -792 0 -792 0 -1230
2860 c-676 1573 -1232 2868 -1235 2878 -5 16 51 17 1073 17 l1079 0 548 -1592z"/>
</g>
</svg>
